<svg width="24" height="24" viewBox="0 0 24 24" fill="none" xmlns="http://www.w3.org/2000/svg">
    <g id="twitter" clip-path="url(#clip0_653_548)">
        <path id="Vector"
            d="M0.0122844 24.0001C0.580572 23.3461 1.14512 22.689 1.71768 22.0384C4.21382 19.202 6.7121 16.3674 9.2093 13.5318C9.26111 13.4728 9.30971 13.4112 9.36873 13.3403C6.2509 8.90764 3.1352 4.47786 0 0.0206934C0.0894626 0.0141718 0.148481 0.0060849 0.2075 0.0060849C2.45421 0.00556316 4.70066 0.0076501 6.94737 0.0013893C7.10707 0.000867564 7.18745 0.0595626 7.27184 0.179561C9.24162 2.98649 11.2154 5.79054 13.1887 8.59512C13.2375 8.66451 13.2888 8.73182 13.3545 8.82129C13.7639 8.35773 14.1591 7.91113 14.5533 7.46348C16.675 5.05412 18.7986 2.64606 20.9139 0.231474C21.0646 0.0598234 21.2146 -0.00539324 21.4422 0.00034583C22.0222 0.0154761 22.603 0.0053023 23.2402 0.0053023C20.237 3.41587 17.2692 6.78601 14.2969 10.1616C14.3482 10.2381 14.3904 10.3033 14.435 10.3669C17.5795 14.8382 20.7241 19.3092 23.8681 23.7807C23.9169 23.8503 23.9562 23.9265 24 23.9998H16.8515C16.8235 23.9531 16.7987 23.9043 16.7672 23.86C14.6553 20.8561 12.5429 17.8525 10.4297 14.8491C10.395 14.7998 10.3523 14.7563 10.3042 14.6994C10.2297 14.7818 10.1656 14.851 10.1034 14.9217C8.29999 16.9692 6.49578 19.0162 4.69345 21.0651C3.83434 22.0418 2.97924 23.0216 2.12253 23.9998H0.0122844V24.0001ZM21.1038 22.4954C21.0285 22.3861 20.981 22.3149 20.931 22.2452C19.6358 20.4351 18.3406 18.6252 17.0452 16.8153C13.4656 11.814 9.88494 6.81366 6.31152 1.80815C6.17585 1.61824 6.03805 1.55146 5.80572 1.55485C4.91884 1.56842 4.03142 1.56007 3.14401 1.56085C3.06897 1.56085 2.99392 1.56868 2.89271 1.57415C2.94772 1.65789 2.98324 1.71711 3.02357 1.7732C7.92985 8.62956 12.8367 15.4857 17.74 22.3438C17.8279 22.467 17.9187 22.5139 18.0725 22.5126C18.9997 22.5053 19.9269 22.5092 20.8541 22.5084C20.923 22.5084 20.9919 22.5014 21.1038 22.4954Z"
            fill="white" />
    </g>
    <defs>
        <clipPath id="clip0_653_548">
            <rect width="24" height="24" fill="white" />
        </clipPath>
    </defs>
</svg>