<?xml version="1.0" standalone="no"?>
<!DOCTYPE svg PUBLIC "-//W3C//DTD SVG 20010904//EN"
 "http://www.w3.org/TR/2001/REC-SVG-20010904/DTD/svg10.dtd">
<svg version="1.0" xmlns="http://www.w3.org/2000/svg"
 width="882.000000pt" height="515.000000pt" viewBox="0 0 882.000000 515.000000"
 preserveAspectRatio="xMidYMid meet">

<g transform="translate(0.000000,515.000000) scale(0.100000,-0.100000)"
fill="currentColor" stroke="white">
<path d="M3865 3844 c-22 -2 -112 -9 -200 -14 -419 -29 -992 -108 -1070 -148
-78 -40 -98 -73 -256 -418 -83 -181 -153 -337 -156 -348 -6 -18 -1 -18 73 -12
119 11 123 13 129 55 14 98 29 160 48 206 129 308 500 507 1112 594 229 33
413 44 735 44 423 0 826 -30 1204 -88 88 -14 161 -23 163 -21 9 8 -312 75
-482 100 -266 40 -400 48 -830 51 -236 1 -448 1 -470 -1z"/>
<path d="M4045 3710 c-171 -7 -414 -26 -423 -35 -1 -1 226 -5 505 -8 509 -6
657 -13 918 -42 481 -55 772 -177 868 -367 46 -91 34 -151 -39 -194 -114 -67
-349 -90 -804 -80 -1362 29 -1778 17 -2270 -69 -469 -82 -905 -241 -1155 -421
-68 -49 -137 -107 -95 -80 158 101 297 168 477 230 437 149 1019 242 1798 286
599 34 1651 17 2298 -36 42 -4 77 -4 77 -1 0 16 -66 182 -105 263 -56 116
-166 280 -242 361 l-58 61 -165 26 c-579 89 -1103 124 -1585 106z"/>
<path d="M1785 3151 c-53 -9 -94 -35 -126 -79 -34 -48 -42 -76 -35 -117 10
-53 40 -65 184 -75 130 -8 214 -30 253 -66 19 -17 21 -16 55 17 l35 34 -69 6
c-74 7 -118 25 -170 70 -28 25 -41 29 -93 29 -75 0 -99 12 -99 49 0 35 25 53
103 76 44 13 64 14 95 6 51 -14 71 -38 98 -119 21 -64 22 -66 32 -40 6 14 14
64 18 110 l6 84 -26 12 c-28 13 -191 15 -261 3z"/>
<path d="M6344 3141 c-34 -15 -35 -24 -24 -117 15 -122 24 -132 45 -55 12 39
29 73 47 92 26 25 37 29 86 28 75 0 142 -26 162 -62 14 -27 14 -29 -9 -48 -18
-14 -39 -19 -87 -19 -59 0 -67 -3 -101 -34 -52 -46 -104 -66 -177 -66 l-61 0
36 -35 35 -36 48 27 c62 35 143 54 231 54 136 1 185 27 185 99 0 53 -49 124
-105 151 -35 17 -68 22 -167 26 -68 2 -133 0 -144 -5z"/>
<path d="M3935 2859 c-301 -19 -668 -67 -955 -125 -179 -36 -480 -110 -490
-121 -3 -3 9 -3 25 0 852 176 1813 238 2885 187 107 -5 231 -13 275 -16 l80
-7 -110 -13 c-60 -8 -200 -23 -310 -34 -370 -38 -554 -73 -623 -118 -40 -26
-24 -51 63 -98 290 -158 570 -212 888 -169 145 19 293 60 548 151 255 91 342
114 423 114 77 0 150 -33 194 -86 35 -42 86 -157 97 -216 5 -24 13 -38 22 -38
12 0 14 8 9 38 -22 120 -76 224 -177 338 -30 33 -63 74 -75 90 -33 46 -84 40
-173 -19 -227 -153 -487 -220 -941 -242 -118 -6 -150 -4 -245 15 -205 41 -311
86 -290 121 31 49 290 95 825 144 96 9 176 18 177 19 6 6 -858 71 -1137 86
-225 11 -794 11 -985 -1z"/>
<path d="M2458 2603 c7 -3 16 -2 19 1 4 3 -2 6 -13 5 -11 0 -14 -3 -6 -6z"/>
<path d="M1230 2219 c-68 -15 -131 -118 -116 -192 3 -16 26 -57 51 -90 32 -43
45 -70 45 -93 0 -46 -9 -64 -32 -64 -19 0 -20 4 -14 50 l7 50 -50 0 c-27 0
-52 -4 -56 -10 -3 -5 -8 -38 -12 -74 -5 -60 -4 -66 20 -90 22 -22 35 -26 88
-26 58 0 64 2 99 38 46 45 75 132 65 190 -4 23 -25 63 -56 102 -53 69 -60 94
-29 110 16 9 22 8 26 -5 3 -8 3 -22 0 -30 -5 -14 3 -16 52 -13 57 3 57 3 60
37 2 19 1 44 -2 57 -11 44 -79 68 -146 53z"/>
<path d="M2490 2204 c-16 -40 -13 -77 5 -70 18 7 18 -2 0 -34 -20 -35 -19 -40
14 -40 22 0 34 9 53 38 25 37 30 50 42 105 6 27 6 27 -49 27 -50 0 -56 -2 -65
-26z"/>
<path d="M2814 2219 c-65 -19 -124 -122 -110 -192 3 -16 26 -57 51 -90 32 -43
45 -70 45 -93 0 -46 -9 -64 -32 -64 -19 0 -20 4 -14 50 l7 50 -50 0 c-27 0
-52 -4 -56 -10 -3 -5 -8 -38 -12 -74 -5 -60 -4 -66 20 -90 22 -22 35 -26 88
-26 58 0 64 2 99 38 36 36 70 116 70 164 0 31 -26 84 -69 138 -45 57 -51 84
-21 100 16 9 22 8 26 -5 3 -8 3 -22 0 -30 -5 -14 3 -16 52 -13 l57 3 3 46 c2
37 -2 52 -20 72 -26 29 -86 41 -134 26z"/>
<path d="M4365 2221 c-83 -20 -105 -57 -150 -250 -44 -189 -45 -241 -9 -270
35 -28 117 -29 160 -2 50 30 71 78 109 241 42 184 44 228 13 257 -27 24 -80
34 -123 24z m6 -259 c-36 -159 -44 -182 -66 -182 -21 0 -25 13 -15 51 4 19 21
87 35 152 27 118 47 159 68 138 8 -8 1 -54 -22 -159z"/>
<path d="M7262 2220 c-42 -10 -85 -50 -106 -98 -24 -58 -76 -294 -76 -351 0
-38 5 -56 20 -71 28 -28 98 -27 134 1 l27 21 6 -21 c3 -13 13 -21 27 -21 20 0
25 13 56 150 18 83 30 153 27 156 -5 5 -72 8 -116 5 -15 -1 -25 -82 -11 -91
16 -10 -13 -115 -34 -123 -34 -13 -34 20 -1 166 33 143 43 174 59 180 27 11
38 -8 28 -47 l-10 -36 53 0 c59 0 65 7 65 87 0 74 -62 113 -148 93z"/>
<path d="M1495 2208 c-3 -7 -31 -128 -63 -268 l-59 -255 50 -3 c29 -2 53 1 57
8 4 6 15 48 24 93 25 121 35 147 55 147 10 0 20 -2 23 -5 4 -5 -31 -171 -48
-227 -5 -16 2 -18 50 -18 31 0 56 2 56 4 0 2 27 120 60 262 33 142 60 261 60
266 0 4 -24 8 -53 8 l-53 0 -12 -57 c-25 -119 -31 -133 -58 -133 -19 0 -24 4
-20 18 9 29 36 153 36 163 0 14 -100 11 -105 -3z"/>
<path d="M1810 1963 c-45 -142 -85 -264 -88 -271 -3 -10 8 -12 48 -10 53 3 54
3 68 46 12 37 17 42 44 42 30 0 31 0 26 -45 l-6 -45 52 0 52 0 33 253 c18 138
35 260 37 270 5 15 -4 17 -89 17 l-93 0 -84 -257z m135 15 c-9 -62 -19 -116
-22 -120 -5 -10 -43 -11 -43 -2 0 18 75 254 78 245 2 -6 -4 -61 -13 -123z"/>
<path d="M2205 2208 c-3 -7 -31 -128 -63 -268 l-59 -255 50 -3 c28 -2 53 1 56
7 4 5 18 61 31 123 l25 113 3 -122 3 -123 54 0 55 0 0 151 0 151 55 115 c30
64 55 118 55 119 0 2 -24 4 -54 4 l-53 0 -43 -95 c-24 -52 -44 -94 -46 -93 -1
2 6 39 16 83 26 110 28 105 -30 105 -31 0 -52 -5 -55 -12z"/>
<path d="M3230 1963 c-45 -142 -85 -264 -88 -271 -3 -10 8 -12 48 -10 53 3 54
3 68 46 12 37 17 42 44 42 30 0 31 0 26 -45 l-6 -45 52 0 52 0 33 253 c18 138
35 260 37 270 5 15 -4 17 -89 17 l-93 0 -84 -257z m135 15 c-9 -62 -19 -116
-22 -120 -2 -5 -13 -8 -25 -8 -15 0 -19 5 -15 18 34 124 72 241 75 233 2 -5
-4 -61 -13 -123z"/>
<path d="M3616 2196 c-3 -14 -27 -114 -52 -223 -40 -173 -44 -203 -34 -235 13
-46 34 -58 101 -58 66 0 111 27 138 83 16 34 111 416 111 448 0 5 -22 9 -50 9
-57 0 -46 26 -106 -235 -20 -88 -40 -170 -45 -182 -9 -25 -49 -32 -49 -9 0 8
20 100 45 205 25 105 45 198 45 206 0 11 -12 15 -49 15 -43 0 -50 -3 -55 -24z"/>
<path d="M3951 2183 c-16 -57 -14 -63 20 -63 24 0 29 -4 25 -17 -6 -21 -96
-413 -96 -419 0 -2 24 -4 53 -4 l54 0 50 218 50 217 34 5 c28 4 35 10 40 35
15 68 20 65 -106 65 l-114 0 -10 -37z"/>
<path d="M4815 2208 c-4 -11 -74 -312 -115 -491 l-8 -39 103 4 c94 3 106 5
130 28 15 14 35 41 45 60 19 37 90 334 90 376 0 14 -11 36 -25 49 -22 23 -32
25 -120 25 -67 0 -97 -4 -100 -12z m123 -90 c6 -9 1 -52 -19 -138 -42 -187
-47 -200 -69 -200 -11 0 -20 6 -20 14 0 17 70 318 76 328 7 12 20 10 32 -4z"/>
<path d="M5175 2208 c-4 -11 -74 -312 -114 -490 l-9 -38 112 0 113 0 11 48 c6
26 7 51 2 56 -4 4 -29 6 -55 4 l-47 -3 7 30 c3 16 9 45 12 63 6 31 7 32 59 32
51 0 53 1 59 33 4 17 9 40 11 50 5 15 -2 17 -46 17 -51 0 -52 0 -46 26 4 15
10 39 13 55 5 28 8 29 59 29 53 0 53 0 63 38 18 64 21 62 -94 62 -75 0 -107
-4 -110 -12z"/>
<path d="M5461 2183 c-16 -57 -14 -63 20 -63 24 0 29 -4 25 -17 -6 -21 -96
-413 -96 -419 0 -2 24 -4 53 -4 l54 0 50 218 50 217 33 5 c35 5 47 24 49 78 1
22 -1 22 -114 22 l-114 0 -10 -37z"/>
<path d="M5730 1963 c-45 -142 -85 -264 -88 -271 -3 -10 8 -12 48 -10 53 3 54
3 68 46 12 37 17 42 44 42 30 0 31 0 26 -45 l-6 -45 52 0 52 0 33 253 c18 138
35 260 37 270 5 15 -4 17 -89 17 l-93 0 -84 -257z m135 15 c-9 -62 -19 -116
-22 -120 -5 -10 -43 -11 -43 -2 0 18 75 254 78 245 2 -6 -4 -61 -13 -123z"/>
<path d="M6130 2216 c0 -3 -27 -121 -60 -264 -33 -143 -60 -263 -60 -267 0 -3
23 -5 51 -3 l52 3 58 250 c32 138 58 258 59 268 0 14 -9 17 -50 17 -27 0 -50
-2 -50 -4z"/>
<path d="M6325 2208 c-3 -7 -31 -128 -63 -268 l-58 -255 105 -3 c57 -1 108 1
111 5 4 4 11 25 14 45 l7 37 -54 3 -54 3 48 210 c27 116 49 216 49 223 0 8
-17 12 -50 12 -31 0 -52 -5 -55 -12z"/>
<path d="M6610 2216 c0 -3 -27 -121 -60 -264 -33 -143 -60 -263 -60 -266 0 -3
22 -6 50 -6 48 0 49 1 59 38 21 76 111 474 111 488 0 10 -13 14 -50 14 -27 0
-50 -2 -50 -4z"/>
<path d="M6815 2208 c-3 -7 -31 -128 -63 -268 l-59 -255 50 -3 c27 -2 51 -1
53 1 2 2 17 59 34 128 l30 124 -5 -127 -5 -128 55 0 c30 0 55 2 55 4 0 3 27
121 60 264 33 143 60 263 60 267 0 3 -23 5 -52 3 l-51 -3 -29 -115 -28 -115 5
118 6 117 -56 0 c-35 0 -57 -5 -60 -12z"/>
<path d="M1070 1630 c0 -20 7 -20 3184 -20 3175 0 3184 0 3189 20 5 20 0 20
-3184 20 -3182 0 -3189 0 -3189 -20z"/>
</g>
</svg>
